# xmcd
#
# Track frame offsets:
#	150
#	16002
#	29256
#	45110
#	58364
#	73462
#	85715
#	101571
#	118981
#	132751
#	145228
#	161605
#	174897
#	188628
#	203922
#
# Disc length: 2871 seconds
#
# Revision: 2
# Processed by: cddbd v1.5.2PL0 Copyright (c) Steve Scherf et al.
# Submitted via: audiograbber 1.83.01
#
DISCID=c90b350f
DTITLE=Various Artist - CDX 028
DYEAR=1992
DGENRE=Country
TTITLE0=Billy Ray Cyrus - Achy Breaky Heart
TTITLE1=Travis Tritt - Bible Belt
TTITLE2=Patty Loveless  - Can't Stop Myself From Loving
TTITLE3=Jack Robertson - Come And Get Us Mama (We're In Trouble With The Law)
TTITLE4=George Strait   - Gone As A Girl Can Get
TTITLE5=The Mavericks - Hey Good Lookin'
TTITLE6=Mike Reid  - I Got A Life
TTITLE7=Alan Jackson - Midnight In Montgomery
TTITLE8=Paulette Carlson - Not With My Heart
TTITLE9=Larry Gatlin - Pretty Woman Have Mercy [And The Gatlin Brothers]
TTITLE10=Kenny Rogers - Someone Must Feel Like A Fool Tonight
TTITLE11=Matthews, Wright and King - The Power Of Love
TTITLE12=Jessica Boucher  - What A Friday Night Is For
TTITLE13=John Anderson - When It Comes To You
TTITLE14=Cleve Francis  - You Do My Heart Good
EXTD=
EXTT0=
EXTT1=
EXTT2=
EXTT3=
EXTT4=
EXTT5=
EXTT6=
EXTT7=
EXTT8=
EXTT9=
EXTT10=
EXTT11=
EXTT12=
EXTT13=
EXTT14=
PLAYORDER=
